<?xml version="1.0" encoding="UTF-8" standalone="no"?>
<!-- Created with Inkscape (http://www.inkscape.org/) -->

<svg
   version="1.1"
   id="svg1"
   width="742.10895"
   height="613.79901"
   viewBox="0 0 742.10895 613.79901"
   xmlns="http://www.w3.org/2000/svg"
   xmlns:svg="http://www.w3.org/2000/svg">
  <defs
     id="defs1" />
  <g
     id="g1"
     transform="translate(-130.8557,-184.16263)">
    <g
       id="g17"
       style="display:inline">
      <path
         style="display:inline;fill:#f4ecdd"
         d="m 538.94068,752.57222 c 0,0 -0.45552,-143.44339 11.16949,-164.10272 l 270.94117,-140.03826 7.59273,130.27022 z"
         id="path22" />
      <path
         style="display:inline;fill:#00008f;fill-opacity:1"
         d="m 147.7376,468.58475 c -9.06695,-9.48075 6.60068,-68.64574 12.80192,-96.0415 6.375,-28.16338 12.68153,-20.61601 118.38421,-80.37772 31.9,-18.03548 81.95424,-44.58597 107.25424,-59.00109 67.595,-38.51343 61.01931,-35.23224 89.42867,-35.23224 24.24018,0 28.72878,3.86333 66.55438,25.66737 49.26637,28.39891 154.79692,79.16868 210.16949,118.00977 23.42426,16.43095 110.02651,63.98799 94.81902,74.10727 -71.63859,47.66931 -205.75285,117.84177 -277.70834,170.66901 -34.36951,25.2329 -32.90933,57.21933 -36.2888,63.71928 C 500.56752,712.77758 222.09858,546.33938 147.7376,468.58475 Z"
         id="path21" />
      <path
         style="display:inline;fill:#00007c;fill-opacity:1"
         d="m 197.231,362.193 c 1.31706,-0.1368 3.62041,3.22321 77.769,47.77896 63.86988,38.3793 105.38707,63.45665 146,88.18742 14.025,8.54036 41.475,25.15103 61,36.9126 19.525,11.76157 43.82437,26.41435 53.99861,32.56172 10.17423,6.14737 19.68196,9.98175 19.5,10.59287 -11.54163,38.76379 -30.0812,92.57943 -25.38274,127.5431 4.96354,36.93627 45.04002,35.55644 14.99374,47.13617 -8.51056,3.27994 323.47319,-183.81169 298.5382,-175.71377 -13.37468,4.34359 65.62872,14.74691 -25.8403,61.00283 -14.51664,7.34107 -172.01756,107.84537 -261.61408,142.43731 -20.22372,7.8081 -85.94996,-42.84802 -85.94996,-42.84802 -43.05249,-25.5628 -312.24914,-201.61714 -320.93589,-217.7992 -5.02863,-9.36755 3.7142,-122.71864 5.13059,-129.8372 1.8243,-9.16864 22.2801,-25.82423 42.79283,-27.95479 z"
         id="path20" />
      <path
         style="display:inline;fill:#31404b"
         d="m 533.5,794.03559 c -12.06576,-3.19618 -19.43364,-7.2868 -49.1327,-27.27824 C 457.72238,748.82177 382.50988,699.21947 322.5,660.00664 c -13.75,-8.9848 -35.35,-23.13252 -48,-31.43939 -12.65,-8.30686 -42.04717,-27.47026 -65.32705,-42.58532 -74.05433,-48.08169 -76.49493,-52.09018 -76.27692,-125.27888 0.17019,-57.13327 2.2012,-68.81022 15.71129,-90.32929 C 163.8856,346.03829 167.60388,343.43963 270.27141,285.3442 303.94713,266.28846 352.2,238.90284 377.5,224.48728 445.09379,185.97334 445.02735,186 473.43715,186 c 23.18802,0 35.0488,3.8922 66.06285,21.67897 7.7,4.416 39.425,22.63665 70.5,40.49033 31.075,17.85368 70.225,40.2752 87,49.8256 74.274,42.28596 135.07741,77.04469 141.87246,81.10249 28.24044,16.86433 33.20404,43.48762 12.02592,64.50345 L 844,450.44636 v 51.21837 51.21838 l 5.75,4.42489 c 20.24754,15.58142 25.85492,34.49179 16.15014,54.46481 -6.57475,13.53122 -14.10818,19.69265 -47.40014,38.76749 -34.93929,20.01869 -122.04016,70.75276 -166.5,96.98206 -83.31226,49.15048 -93.47921,53.14118 -118.5,46.51323 z m 26.15845,-26.4328 c 8.66186,-2.30627 11.04064,-3.62548 90.34155,-50.10124 26.125,-15.31104 73.375,-42.90547 105,-61.32095 82.38167,-47.97148 80.62846,-46.90731 83.99665,-50.98493 2.92723,-3.54377 5.72338,-10.80897 4.59451,-11.93784 -0.29716,-0.29716 -2.91424,1.28855 -5.81573,3.52381 -6.42615,4.95061 -34.35463,21.91842 -86.77543,52.72001 -21.725,12.76525 -51.65,30.38886 -66.5,39.16358 -14.85,8.77472 -43.65,25.7885 -64,37.80841 -20.35,12.0199 -41.275,24.40124 -46.5,27.51408 -5.225,3.11284 -12.53349,7.35053 -16.2411,9.41708 -10.16514,5.66588 -9.46068,7.22272 1.89955,4.19799 z M 520.31024,744.75 C 512.18404,621.89018 522.33622,596.9332 598,553.76625 c 10.175,-5.80494 41,-23.47269 68.5,-39.26167 74.03882,-42.509 100.17364,-57.21044 150.14334,-84.45912 C 848.14751,412.86611 853.09736,418.64067 763,367.46439 709.47559,337.06194 654.71653,305.74362 565.5,254.50832 492.63078,212.66096 493.39512,213 471.92375,213 454.48373,213 447.91248,214.9637 429.2614,225.74888 409.25771,237.31622 355.69808,267.86766 296.5,301.47853 153.33316,382.7643 159.54118,375.51457 160.20662,460.64219 l 0.3272,41.85781 2.5237,6.51508 c 6.11358,15.78252 11.8793,21.51487 39.94248,39.71129 11.825,7.66743 27.35,17.78228 34.5,22.47744 7.15,4.69516 27.625,18.10151 45.5,29.79188 17.875,11.69038 57.475,37.59292 88,57.56121 30.525,19.96828 76.425,50.24848 102,67.28933 25.575,17.04086 46.86461,31.02171 47.31024,31.06857 0.44563,0.0469 0.44563,-5.4273 0,-12.1648 z m 36.58833,-12.42633 C 561.62935,729.75168 599.475,707.63206 641,683.16895 c 41.525,-24.46311 83.375,-49.11646 93,-54.78523 9.625,-5.66876 32.35,-19.21164 50.5,-30.09528 l 33,-19.78844 -0.383,-58 c -0.21064,-31.9 -0.58973,-58.225 -0.8424,-58.5 -0.94928,-1.03316 -8.97737,3.47238 -174.2746,97.80665 -98.20207,56.04342 -95.90753,52.82103 -95.96912,134.77668 -0.017,22.59584 0.26912,41.38334 0.63579,41.75 1.00571,1.00572 1.00974,1.00414 10.2319,-4.00966 z"
         id="path19" />
    </g>
  </g>
</svg>
