<svg viewBox="0 0 200 150" xmlns="http://www.w3.org/2000/svg">
  <!-- Outer decorative frame -->
  <defs>
    <linearGradient id="frameGradient" x1="0%" y1="0%" x2="100%" y2="100%">
      <stop offset="0%" style="stop-color:#8B4513;stop-opacity:1" />
      <stop offset="50%" style="stop-color:#A0522D;stop-opacity:1" />
      <stop offset="100%" style="stop-color:#654321;stop-opacity:1" />
    </linearGradient>
    <filter id="frameShadow" x="-20%" y="-20%" width="140%" height="140%">
      <feDropShadow dx="2" dy="3" stdDeviation="3" flood-color="#000000" flood-opacity="0.4"/>
    </filter>
  </defs>
  
  <!-- Main frame border -->
  <ellipse cx="100" cy="75" rx="85" ry="65" 
           fill="url(#frameGradient)" 
           stroke="#654321" 
           stroke-width="2"
           filter="url(#frameShadow)"/>
  
  <!-- Inner frame detail -->
  <ellipse cx="100" cy="75" rx="75" ry="55" 
           fill="none" 
           stroke="#A0522D" 
           stroke-width="1"/>
  
  <!-- Video viewport (this will be masked) -->
  <ellipse cx="100" cy="75" rx="65" ry="45" 
           fill="#000000" 
           stroke="#2C3E7A" 
           stroke-width="1"/>
  
  <!-- Decorative corner flourishes -->
  <g stroke="#654321" stroke-width="1.5" fill="none" opacity="0.8">
    <!-- Top left flourish -->
    <path d="M 35 25 Q 25 15 15 25 Q 25 35 35 25"/>
    
    <!-- Top right flourish -->
    <path d="M 165 25 Q 175 15 185 25 Q 175 35 165 25"/>
    
    <!-- Bottom left flourish -->
    <path d="M 35 125 Q 25 135 15 125 Q 25 115 35 125"/>
    
    <!-- Bottom right flourish -->
    <path d="M 165 125 Q 175 135 185 125 Q 175 115 165 125"/>
  </g>
  
  <!-- Optional nameplate area -->
  <rect x="75" y="130" width="50" height="12" 
        fill="#8B4513" 
        stroke="#654321" 
        stroke-width="1" 
        rx="2"/>
</svg>