<svg viewBox="0 0 200 150" xmlns="http://www.w3.org/2000/svg">
  <defs>
    <linearGradient id="woodGrain" x1="0%" y1="0%" x2="0%" y2="100%">
      <stop offset="0%" style="stop-color:#D2691E;stop-opacity:1" />
      <stop offset="30%" style="stop-color:#8B4513;stop-opacity:1" />
      <stop offset="70%" style="stop-color:#A0522D;stop-opacity:1" />
      <stop offset="100%" style="stop-color:#654321;stop-opacity:1" />
    </linearGradient>
    <filter id="woodShadow" x="-10%" y="-10%" width="120%" height="120%">
      <feDropShadow dx="2" dy="2" stdDeviation="2" flood-color="#000000" flood-opacity="0.3"/>
    </filter>
  </defs>
  
  <!-- Outer wooden frame -->
  <rect x="10" y="10" width="180" height="130" 
        rx="8" ry="8"
        fill="url(#woodGrain)" 
        stroke="#654321" 
        stroke-width="2"
        filter="url(#woodShadow)"/>
  
  <!-- Inner frame molding -->
  <rect x="20" y="20" width="160" height="110" 
        rx="4" ry="4"
        fill="none" 
        stroke="#A0522D" 
        stroke-width="1"/>
  
  <!-- Video viewport -->
  <rect x="30" y="30" width="140" height="90" 
        rx="2" ry="2"
        fill="#000000" 
        stroke="#2C3E7A" 
        stroke-width="1"/>
  
  <!-- Corner decorations -->
  <g fill="#654321" opacity="0.7">
    <!-- Top left corner -->
    <circle cx="25" cy="25" r="3"/>
    <circle cx="35" cy="25" r="2"/>
    <circle cx="25" cy="35" r="2"/>
    
    <!-- Top right corner -->
    <circle cx="175" cy="25" r="3"/>
    <circle cx="165" cy="25" r="2"/>
    <circle cx="175" cy="35" r="2"/>
    
    <!-- Bottom left corner -->
    <circle cx="25" cy="125" r="3"/>
    <circle cx="35" cy="125" r="2"/>
    <circle cx="25" cy="115" r="2"/>
    
    <!-- Bottom right corner -->
    <circle cx="175" cy="125" r="3"/>
    <circle cx="165" cy="125" r="2"/>
    <circle cx="175" cy="115" r="2"/>
  </g>
</svg>